<svg width="31" height="10" viewBox="0 0 31 10" fill="none" xmlns="http://www.w3.org/2000/svg">
<path d="M6.66 4.662C6.66 5.418 6.578 6.076 6.414 6.636C6.254 7.192 6.03 7.652 5.742 8.016C5.458 8.38 5.12 8.652 4.728 8.832C4.34 9.008 3.92 9.096 3.468 9.096C3.016 9.096 2.596 9.008 2.208 8.832C1.824 8.652 1.49 8.38 1.206 8.016C0.922 7.652 0.7 7.192 0.54 6.636C0.38 6.076 0.3 5.418 0.3 4.662C0.3 3.902 0.38 3.244 0.54 2.688C0.7 2.132 0.922 1.672 1.206 1.308C1.49 0.944 1.824 0.674 2.208 0.498C2.596 0.318 3.016 0.228 3.468 0.228C3.92 0.228 4.34 0.318 4.728 0.498C5.12 0.674 5.458 0.944 5.742 1.308C6.03 1.672 6.254 2.132 6.414 2.688C6.578 3.244 6.66 3.902 6.66 4.662ZM5.13 4.662C5.13 4.034 5.084 3.514 4.992 3.102C4.9 2.69 4.776 2.362 4.62 2.118C4.468 1.874 4.292 1.704 4.092 1.608C3.892 1.508 3.684 1.458 3.468 1.458C3.256 1.458 3.05 1.508 2.85 1.608C2.654 1.704 2.48 1.874 2.328 2.118C2.176 2.362 2.054 2.69 1.962 3.102C1.874 3.514 1.83 4.034 1.83 4.662C1.83 5.29 1.874 5.81 1.962 6.222C2.054 6.634 2.176 6.962 2.328 7.206C2.48 7.45 2.654 7.622 2.85 7.722C3.05 7.818 3.256 7.866 3.468 7.866C3.684 7.866 3.892 7.818 4.092 7.722C4.292 7.622 4.468 7.45 4.62 7.206C4.776 6.962 4.9 6.634 4.992 6.222C5.084 5.81 5.13 5.29 5.13 4.662ZM13.6209 4.662C13.6209 5.418 13.5389 6.076 13.3749 6.636C13.2149 7.192 12.9909 7.652 12.7029 8.016C12.4189 8.38 12.0809 8.652 11.6889 8.832C11.3009 9.008 10.8809 9.096 10.4289 9.096C9.97694 9.096 9.55694 9.008 9.16894 8.832C8.78494 8.652 8.45094 8.38 8.16694 8.016C7.88294 7.652 7.66094 7.192 7.50094 6.636C7.34094 6.076 7.26094 5.418 7.26094 4.662C7.26094 3.902 7.34094 3.244 7.50094 2.688C7.66094 2.132 7.88294 1.672 8.16694 1.308C8.45094 0.944 8.78494 0.674 9.16894 0.498C9.55694 0.318 9.97694 0.228 10.4289 0.228C10.8809 0.228 11.3009 0.318 11.6889 0.498C12.0809 0.674 12.4189 0.944 12.7029 1.308C12.9909 1.672 13.2149 2.132 13.3749 2.688C13.5389 3.244 13.6209 3.902 13.6209 4.662ZM12.0909 4.662C12.0909 4.034 12.0449 3.514 11.9529 3.102C11.8609 2.69 11.7369 2.362 11.5809 2.118C11.4289 1.874 11.2529 1.704 11.0529 1.608C10.8529 1.508 10.6449 1.458 10.4289 1.458C10.2169 1.458 10.0109 1.508 9.81094 1.608C9.61494 1.704 9.44094 1.874 9.28894 2.118C9.13694 2.362 9.01494 2.69 8.92294 3.102C8.83494 3.514 8.79094 4.034 8.79094 4.662C8.79094 5.29 8.83494 5.81 8.92294 6.222C9.01494 6.634 9.13694 6.962 9.28894 7.206C9.44094 7.45 9.61494 7.622 9.81094 7.722C10.0109 7.818 10.2169 7.866 10.4289 7.866C10.6449 7.866 10.8529 7.818 11.0529 7.722C11.2529 7.622 11.4289 7.45 11.5809 7.206C11.7369 6.962 11.8609 6.634 11.9529 6.222C12.0449 5.81 12.0909 5.29 12.0909 4.662ZM14.5579 8.184C14.5579 8.06 14.5799 7.942 14.6239 7.83C14.6719 7.718 14.7359 7.622 14.8159 7.542C14.8959 7.462 14.9919 7.398 15.1039 7.35C15.2159 7.302 15.3359 7.278 15.4639 7.278C15.5919 7.278 15.7099 7.302 15.8179 7.35C15.9299 7.398 16.0259 7.462 16.1059 7.542C16.1899 7.622 16.2559 7.718 16.3039 7.83C16.3519 7.942 16.3759 8.06 16.3759 8.184C16.3759 8.312 16.3519 8.432 16.3039 8.544C16.2559 8.652 16.1899 8.746 16.1059 8.826C16.0259 8.906 15.9299 8.968 15.8179 9.012C15.7099 9.06 15.5919 9.084 15.4639 9.084C15.3359 9.084 15.2159 9.06 15.1039 9.012C14.9919 8.968 14.8959 8.906 14.8159 8.826C14.7359 8.746 14.6719 8.652 14.6239 8.544C14.5799 8.432 14.5579 8.312 14.5579 8.184ZM14.5579 3.906C14.5579 3.782 14.5799 3.664 14.6239 3.552C14.6719 3.44 14.7359 3.344 14.8159 3.264C14.8959 3.184 14.9919 3.12 15.1039 3.072C15.2159 3.024 15.3359 3 15.4639 3C15.5919 3 15.7099 3.024 15.8179 3.072C15.9299 3.12 16.0259 3.184 16.1059 3.264C16.1899 3.344 16.2559 3.44 16.3039 3.552C16.3519 3.664 16.3759 3.782 16.3759 3.906C16.3759 4.034 16.3519 4.154 16.3039 4.266C16.2559 4.374 16.1899 4.468 16.1059 4.548C16.0259 4.628 15.9299 4.692 15.8179 4.74C15.7099 4.784 15.5919 4.806 15.4639 4.806C15.3359 4.806 15.2159 4.784 15.1039 4.74C14.9919 4.692 14.8959 4.628 14.8159 4.548C14.7359 4.468 14.6719 4.374 14.6239 4.266C14.5799 4.154 14.5579 4.034 14.5579 3.906ZM22.9016 7.62C23.0616 7.62 23.1876 7.666 23.2796 7.758C23.3756 7.846 23.4236 7.964 23.4236 8.112V9H17.4716V8.508C17.4716 8.408 17.4916 8.304 17.5316 8.196C17.5756 8.084 17.6436 7.984 17.7356 7.896L20.3696 5.256C20.5896 5.032 20.7856 4.818 20.9576 4.614C21.1336 4.41 21.2796 4.208 21.3956 4.008C21.5116 3.808 21.5996 3.606 21.6596 3.402C21.7236 3.194 21.7556 2.976 21.7556 2.748C21.7556 2.54 21.7256 2.358 21.6656 2.202C21.6056 2.042 21.5196 1.908 21.4076 1.8C21.2996 1.692 21.1676 1.612 21.0116 1.56C20.8596 1.504 20.6876 1.476 20.4956 1.476C20.3196 1.476 20.1556 1.502 20.0036 1.554C19.8556 1.602 19.7236 1.672 19.6076 1.764C19.4916 1.852 19.3936 1.956 19.3136 2.076C19.2336 2.196 19.1736 2.328 19.1336 2.472C19.0656 2.656 18.9776 2.778 18.8696 2.838C18.7616 2.898 18.6056 2.912 18.4016 2.88L17.6216 2.742C17.6816 2.326 17.7976 1.962 17.9696 1.65C18.1416 1.334 18.3556 1.072 18.6116 0.864C18.8716 0.652 19.1676 0.494 19.4996 0.39C19.8356 0.282 20.1956 0.228 20.5796 0.228C20.9796 0.228 21.3456 0.288 21.6776 0.408C22.0096 0.523999 22.2936 0.689999 22.5296 0.905999C22.7656 1.122 22.9496 1.382 23.0816 1.686C23.2136 1.99 23.2796 2.328 23.2796 2.7C23.2796 3.02 23.2316 3.316 23.1356 3.588C23.0436 3.86 22.9176 4.12 22.7576 4.368C22.6016 4.616 22.4176 4.856 22.2056 5.088C21.9936 5.32 21.7716 5.556 21.5396 5.796L19.5836 7.794C19.7716 7.738 19.9576 7.696 20.1416 7.668C20.3296 7.636 20.5076 7.62 20.6756 7.62H22.9016ZM27.4566 7.938C27.7006 7.938 27.9146 7.904 28.0986 7.836C28.2826 7.764 28.4366 7.666 28.5606 7.542C28.6886 7.418 28.7846 7.27 28.8486 7.098C28.9126 6.926 28.9446 6.74 28.9446 6.54C28.9446 6.064 28.8126 5.704 28.5486 5.46C28.2846 5.216 27.9206 5.094 27.4566 5.094C26.9926 5.094 26.6286 5.216 26.3646 5.46C26.1006 5.704 25.9686 6.064 25.9686 6.54C25.9686 6.74 26.0006 6.926 26.0646 7.098C26.1286 7.27 26.2226 7.418 26.3466 7.542C26.4746 7.666 26.6306 7.764 26.8146 7.836C26.9986 7.904 27.2126 7.938 27.4566 7.938ZM27.4566 1.344C27.2366 1.344 27.0466 1.378 26.8866 1.446C26.7266 1.514 26.5926 1.606 26.4846 1.722C26.3806 1.834 26.3026 1.964 26.2506 2.112C26.2026 2.26 26.1786 2.416 26.1786 2.58C26.1786 2.752 26.1986 2.92 26.2386 3.084C26.2826 3.244 26.3546 3.388 26.4546 3.516C26.5546 3.64 26.6866 3.74 26.8506 3.816C27.0146 3.892 27.2166 3.93 27.4566 3.93C27.6966 3.93 27.8986 3.892 28.0626 3.816C28.2266 3.74 28.3586 3.64 28.4586 3.516C28.5586 3.388 28.6286 3.244 28.6686 3.084C28.7126 2.92 28.7346 2.752 28.7346 2.58C28.7346 2.416 28.7086 2.26 28.6566 2.112C28.6046 1.964 28.5266 1.834 28.4226 1.722C28.3186 1.606 28.1866 1.514 28.0266 1.446C27.8666 1.378 27.6766 1.344 27.4566 1.344ZM28.9206 4.476C29.4486 4.648 29.8386 4.912 30.0906 5.268C30.3426 5.62 30.4686 6.052 30.4686 6.564C30.4686 6.948 30.3946 7.296 30.2466 7.608C30.1026 7.92 29.8986 8.186 29.6346 8.406C29.3706 8.626 29.0526 8.796 28.6806 8.916C28.3126 9.036 27.9046 9.096 27.4566 9.096C27.0086 9.096 26.5986 9.036 26.2266 8.916C25.8586 8.796 25.5426 8.626 25.2786 8.406C25.0146 8.186 24.8086 7.92 24.6606 7.608C24.5166 7.296 24.4446 6.948 24.4446 6.564C24.4446 6.052 24.5706 5.62 24.8226 5.268C25.0746 4.912 25.4646 4.648 25.9926 4.476C25.5726 4.3 25.2566 4.05 25.0446 3.726C24.8366 3.402 24.7326 3.012 24.7326 2.556C24.7326 2.228 24.7986 1.922 24.9306 1.638C25.0666 1.354 25.2546 1.108 25.4946 0.9C25.7346 0.687999 26.0206 0.523999 26.3526 0.408C26.6886 0.288 27.0566 0.228 27.4566 0.228C27.8566 0.228 28.2226 0.288 28.5546 0.408C28.8906 0.523999 29.1786 0.687999 29.4186 0.9C29.6586 1.108 29.8446 1.354 29.9766 1.638C30.1126 1.922 30.1806 2.228 30.1806 2.556C30.1806 3.012 30.0746 3.402 29.8626 3.726C29.6546 4.05 29.3406 4.3 28.9206 4.476Z" fill="white"/>
</svg>
