<svg width="31" height="10" viewBox="0 0 31 10" fill="none" xmlns="http://www.w3.org/2000/svg">
<path d="M6.66 4.662C6.66 5.418 6.578 6.076 6.414 6.636C6.254 7.192 6.03 7.652 5.742 8.016C5.458 8.38 5.12 8.652 4.728 8.832C4.34 9.008 3.92 9.096 3.468 9.096C3.016 9.096 2.596 9.008 2.208 8.832C1.824 8.652 1.49 8.38 1.206 8.016C0.922 7.652 0.7 7.192 0.54 6.636C0.38 6.076 0.3 5.418 0.3 4.662C0.3 3.902 0.38 3.244 0.54 2.688C0.7 2.132 0.922 1.672 1.206 1.308C1.49 0.944 1.824 0.674 2.208 0.498C2.596 0.318 3.016 0.228 3.468 0.228C3.92 0.228 4.34 0.318 4.728 0.498C5.12 0.674 5.458 0.944 5.742 1.308C6.03 1.672 6.254 2.132 6.414 2.688C6.578 3.244 6.66 3.902 6.66 4.662ZM5.13 4.662C5.13 4.034 5.084 3.514 4.992 3.102C4.9 2.69 4.776 2.362 4.62 2.118C4.468 1.874 4.292 1.704 4.092 1.608C3.892 1.508 3.684 1.458 3.468 1.458C3.256 1.458 3.05 1.508 2.85 1.608C2.654 1.704 2.48 1.874 2.328 2.118C2.176 2.362 2.054 2.69 1.962 3.102C1.874 3.514 1.83 4.034 1.83 4.662C1.83 5.29 1.874 5.81 1.962 6.222C2.054 6.634 2.176 6.962 2.328 7.206C2.48 7.45 2.654 7.622 2.85 7.722C3.05 7.818 3.256 7.866 3.468 7.866C3.684 7.866 3.892 7.818 4.092 7.722C4.292 7.622 4.468 7.45 4.62 7.206C4.776 6.962 4.9 6.634 4.992 6.222C5.084 5.81 5.13 5.29 5.13 4.662ZM13.6209 4.662C13.6209 5.418 13.5389 6.076 13.3749 6.636C13.2149 7.192 12.9909 7.652 12.7029 8.016C12.4189 8.38 12.0809 8.652 11.6889 8.832C11.3009 9.008 10.8809 9.096 10.4289 9.096C9.97694 9.096 9.55694 9.008 9.16894 8.832C8.78494 8.652 8.45094 8.38 8.16694 8.016C7.88294 7.652 7.66094 7.192 7.50094 6.636C7.34094 6.076 7.26094 5.418 7.26094 4.662C7.26094 3.902 7.34094 3.244 7.50094 2.688C7.66094 2.132 7.88294 1.672 8.16694 1.308C8.45094 0.944 8.78494 0.674 9.16894 0.498C9.55694 0.318 9.97694 0.228 10.4289 0.228C10.8809 0.228 11.3009 0.318 11.6889 0.498C12.0809 0.674 12.4189 0.944 12.7029 1.308C12.9909 1.672 13.2149 2.132 13.3749 2.688C13.5389 3.244 13.6209 3.902 13.6209 4.662ZM12.0909 4.662C12.0909 4.034 12.0449 3.514 11.9529 3.102C11.8609 2.69 11.7369 2.362 11.5809 2.118C11.4289 1.874 11.2529 1.704 11.0529 1.608C10.8529 1.508 10.6449 1.458 10.4289 1.458C10.2169 1.458 10.0109 1.508 9.81094 1.608C9.61494 1.704 9.44094 1.874 9.28894 2.118C9.13694 2.362 9.01494 2.69 8.92294 3.102C8.83494 3.514 8.79094 4.034 8.79094 4.662C8.79094 5.29 8.83494 5.81 8.92294 6.222C9.01494 6.634 9.13694 6.962 9.28894 7.206C9.44094 7.45 9.61494 7.622 9.81094 7.722C10.0109 7.818 10.2169 7.866 10.4289 7.866C10.6449 7.866 10.8529 7.818 11.0529 7.722C11.2529 7.622 11.4289 7.45 11.5809 7.206C11.7369 6.962 11.8609 6.634 11.9529 6.222C12.0449 5.81 12.0909 5.29 12.0909 4.662ZM14.5579 8.184C14.5579 8.06 14.5799 7.942 14.6239 7.83C14.6719 7.718 14.7359 7.622 14.8159 7.542C14.8959 7.462 14.9919 7.398 15.1039 7.35C15.2159 7.302 15.3359 7.278 15.4639 7.278C15.5919 7.278 15.7099 7.302 15.8179 7.35C15.9299 7.398 16.0259 7.462 16.1059 7.542C16.1899 7.622 16.2559 7.718 16.3039 7.83C16.3519 7.942 16.3759 8.06 16.3759 8.184C16.3759 8.312 16.3519 8.432 16.3039 8.544C16.2559 8.652 16.1899 8.746 16.1059 8.826C16.0259 8.906 15.9299 8.968 15.8179 9.012C15.7099 9.06 15.5919 9.084 15.4639 9.084C15.3359 9.084 15.2159 9.06 15.1039 9.012C14.9919 8.968 14.8959 8.906 14.8159 8.826C14.7359 8.746 14.6719 8.652 14.6239 8.544C14.5799 8.432 14.5579 8.312 14.5579 8.184ZM14.5579 3.906C14.5579 3.782 14.5799 3.664 14.6239 3.552C14.6719 3.44 14.7359 3.344 14.8159 3.264C14.8959 3.184 14.9919 3.12 15.1039 3.072C15.2159 3.024 15.3359 3 15.4639 3C15.5919 3 15.7099 3.024 15.8179 3.072C15.9299 3.12 16.0259 3.184 16.1059 3.264C16.1899 3.344 16.2559 3.44 16.3039 3.552C16.3519 3.664 16.3759 3.782 16.3759 3.906C16.3759 4.034 16.3519 4.154 16.3039 4.266C16.2559 4.374 16.1899 4.468 16.1059 4.548C16.0259 4.628 15.9299 4.692 15.8179 4.74C15.7099 4.784 15.5919 4.806 15.4639 4.806C15.3359 4.806 15.2159 4.784 15.1039 4.74C14.9919 4.692 14.8959 4.628 14.8159 4.548C14.7359 4.468 14.6719 4.374 14.6239 4.266C14.5799 4.154 14.5579 4.034 14.5579 3.906ZM21.2876 5.73V2.892C21.2876 2.624 21.3056 2.328 21.3416 2.004L18.6476 5.73H21.2876ZM23.6696 5.73V6.588C23.6696 6.668 23.6436 6.738 23.5916 6.798C23.5396 6.854 23.4656 6.882 23.3696 6.882H22.5776V9H21.2876V6.882H17.6276C17.5276 6.882 17.4396 6.852 17.3636 6.792C17.2876 6.728 17.2396 6.65 17.2196 6.558L17.0636 5.808L21.1736 0.318H22.5776V5.73H23.6696ZM29.8626 7.62C30.0226 7.62 30.1486 7.666 30.2406 7.758C30.3366 7.846 30.3846 7.964 30.3846 8.112V9H24.4326V8.508C24.4326 8.408 24.4526 8.304 24.4926 8.196C24.5366 8.084 24.6046 7.984 24.6966 7.896L27.3306 5.256C27.5506 5.032 27.7466 4.818 27.9186 4.614C28.0946 4.41 28.2406 4.208 28.3566 4.008C28.4726 3.808 28.5606 3.606 28.6206 3.402C28.6846 3.194 28.7166 2.976 28.7166 2.748C28.7166 2.54 28.6866 2.358 28.6266 2.202C28.5666 2.042 28.4806 1.908 28.3686 1.8C28.2606 1.692 28.1286 1.612 27.9726 1.56C27.8206 1.504 27.6486 1.476 27.4566 1.476C27.2806 1.476 27.1166 1.502 26.9646 1.554C26.8166 1.602 26.6846 1.672 26.5686 1.764C26.4526 1.852 26.3546 1.956 26.2746 2.076C26.1946 2.196 26.1346 2.328 26.0946 2.472C26.0266 2.656 25.9386 2.778 25.8306 2.838C25.7226 2.898 25.5666 2.912 25.3626 2.88L24.5826 2.742C24.6426 2.326 24.7586 1.962 24.9306 1.65C25.1026 1.334 25.3166 1.072 25.5726 0.864C25.8326 0.652 26.1286 0.494 26.4606 0.39C26.7966 0.282 27.1566 0.228 27.5406 0.228C27.9406 0.228 28.3066 0.288 28.6386 0.408C28.9706 0.523999 29.2546 0.689999 29.4906 0.905999C29.7266 1.122 29.9106 1.382 30.0426 1.686C30.1746 1.99 30.2406 2.328 30.2406 2.7C30.2406 3.02 30.1926 3.316 30.0966 3.588C30.0046 3.86 29.8786 4.12 29.7186 4.368C29.5626 4.616 29.3786 4.856 29.1666 5.088C28.9546 5.32 28.7326 5.556 28.5006 5.796L26.5446 7.794C26.7326 7.738 26.9186 7.696 27.1026 7.668C27.2906 7.636 27.4686 7.62 27.6366 7.62H29.8626Z" fill="white"/>
</svg>
